<svg xmlns="http://www.w3.org/2000/svg" version="1.1" width="96" height="96" viewbox="0 0 96 96"><rect x="0" y="0" width="96" height="96" fill="#FFFFFF"></rect><g transform="translate(24.024, 60)"><path d="M44.59-12.96Q45.31-12.58 45.31-12 45.31-11.42 44.59-11.04L44.59-11.04 7.92-11.04 8.06-10.9Q13.01-7.1 14.54-1.2L14.54-1.2Q14.83-0.14 14.83 0L14.83 0Q14.83 0.53 13.82 0.53L13.82 0.53Q13.25 0.53 13.08 0.41 12.91 0.29 12.82-0.19L12.82-0.19Q12.72-0.53 12.62-1.01L12.62-1.01Q11.76-4.51 9.34-7.25 6.91-9.98 3.5-11.33L3.5-11.33Q2.78-11.62 2.64-11.86L2.64-11.86Q2.64-12.48 3.5-12.67L3.5-12.67Q6.91-14.02 9.34-16.75 11.76-19.49 12.62-22.99L12.62-22.99Q12.67-23.14 12.72-23.42 12.77-23.71 12.79-23.81 12.82-23.9 12.89-24.1 12.96-24.29 13.06-24.36 13.15-24.43 13.34-24.48 13.54-24.53 13.82-24.53L13.82-24.53Q14.83-24.53 14.83-24L14.83-24Q14.83-23.86 14.54-22.8L14.54-22.8Q13.1-17.09 8.06-13.1L8.06-13.1 7.92-12.96 44.59-12.96Z" fill="#404040"></path></g></svg>