<svg xmlns="http://www.w3.org/2000/svg" version="1.1" width="96" height="96" viewbox="0 0 96 96"><rect x="0" y="0" width="96" height="96" fill="#FFFFFF"></rect><g transform="translate(24, 60)"><path d="M3.36-11.04Q2.69-11.38 2.69-12 2.69-12.62 3.36-12.96L3.36-12.96 40.08-12.96Q36.67-15.5 34.8-19.1L34.8-19.1Q33.6-21.41 33.22-23.66L33.22-23.66Q33.22-23.76 33.19-23.86 33.17-23.95 33.17-24L33.17-24Q33.17-24.53 34.13-24.53L34.13-24.53Q34.7-24.53 34.87-24.41 35.04-24.29 35.14-23.86L35.14-23.86Q35.28-22.9 35.66-21.89L35.66-21.89Q36.72-18.67 39.17-16.15 41.62-13.63 44.88-12.53L44.88-12.53Q45.31-12.38 45.31-12 45.31-11.62 44.88-11.47L44.88-11.47Q41.62-10.37 39.17-7.85 36.72-5.33 35.66-2.11L35.66-2.11Q35.33-1.1 35.14-0.19L35.14-0.19Q35.04 0.29 34.87 0.41 34.7 0.53 34.13 0.53L34.13 0.53Q33.12 0.53 33.12 0L33.12 0Q33.12-0.14 33.41-1.2L33.41-1.2Q34.9-7.2 40.08-11.04L40.08-11.04 3.36-11.04Z" fill="#404040"></path></g></svg>